<?xml version="1.0" encoding="UTF-8" standalone="no"?>
<svg width="221.897mm" height="55.7389mm"
 viewBox="0 0 629 158"
 xmlns="http://www.w3.org/2000/svg" xmlns:xlink="http://www.w3.org/1999/xlink"  version="1.2" baseProfile="tiny">
<title>utilizationRelated</title>
<desc>Generated by Document Node</desc>
<defs>
</defs>
<g fill="none" stroke="black" stroke-width="1" fill-rule="evenodd" stroke-linecap="square" stroke-linejoin="bevel" >

<g fill="#20263d" fill-opacity="1" stroke="none" transform="matrix(1,0,0,1,0,0)"
font-family="Ubuntu" font-size="13" font-weight="400" font-style="normal" 
>
<rect x="0" y="0" width="629" height="158"/>
</g>

<g fill="none" stroke="#000000" stroke-opacity="1" stroke-width="1" stroke-linecap="square" stroke-linejoin="bevel" transform="matrix(1,0,0,1,0,0)"
font-family="Ubuntu" font-size="13" font-weight="400" font-style="normal" 
>
</g>

<g fill="none" stroke="#000000" stroke-opacity="1" stroke-width="1" stroke-linecap="square" stroke-linejoin="bevel" transform="matrix(1,0,0,1,0,0)"
font-family="Ubuntu" font-size="13" font-weight="400" font-style="normal" 
>
</g>

<g fill="none" stroke="#000000" stroke-opacity="1" stroke-width="1" stroke-linecap="square" stroke-linejoin="bevel" transform="matrix(0.998685,0,0,0.998685,0,0)"
font-family="Ubuntu" font-size="13" font-weight="400" font-style="normal" 
>
</g>

<g fill="none" stroke="#fcfcfc" stroke-opacity="1" stroke-width="3" stroke-linecap="square" stroke-linejoin="bevel" transform="matrix(0.998685,0,0,0.998685,0,0)"
font-family="Ubuntu" font-size="13" font-weight="400" font-style="normal" 
>
<path vector-effect="none" fill-rule="evenodd" d="M268.281,79 L268.281,47.5 C268.281,45.5 269.281,44.5 271.281,44.5 L349.281,44.5"/>
</g>

<g fill="none" stroke="#000000" stroke-opacity="1" stroke-width="1" stroke-linecap="square" stroke-linejoin="bevel" transform="matrix(0.998685,0,0,0.998685,0,0)"
font-family="Ubuntu" font-size="13" font-weight="400" font-style="normal" 
>
</g>

<g fill="none" stroke="#000000" stroke-opacity="1" stroke-width="1" stroke-linecap="square" stroke-linejoin="bevel" transform="matrix(0.998685,0,0,0.998685,0,0)"
font-family="Ubuntu" font-size="13" font-weight="400" font-style="normal" 
>
</g>

<g fill="none" stroke="#fcfcfc" stroke-opacity="1" stroke-width="3" stroke-linecap="square" stroke-linejoin="bevel" transform="matrix(0.998685,0,0,0.998685,0,0)"
font-family="Ubuntu" font-size="13" font-weight="400" font-style="normal" 
>
<path vector-effect="none" fill-rule="evenodd" d="M268.281,79 L268.281,110.5 C268.281,112.5 269.281,113.5 271.281,113.5 L349.281,113.5"/>
</g>

<g fill="none" stroke="#000000" stroke-opacity="1" stroke-width="1" stroke-linecap="square" stroke-linejoin="bevel" transform="matrix(0.998685,0,0,0.998685,0,0)"
font-family="Ubuntu" font-size="13" font-weight="400" font-style="normal" 
>
</g>

<g fill="none" stroke="#000000" stroke-opacity="1" stroke-width="1" stroke-linecap="square" stroke-linejoin="bevel" transform="matrix(0.998685,0,0,0.998685,368.796,30.9592)"
font-family="Ubuntu" font-size="13" font-weight="400" font-style="normal" 
>
</g>

<g fill="#c8d4e6" fill-opacity="1" stroke="none" transform="matrix(0.998685,0,0,0.998685,368.796,30.9592)"
font-family="Ubuntu" font-size="13" font-weight="400" font-style="normal" 
>
<path vector-effect="none" fill-rule="evenodd" d="M-20,13.5 C-20,1.62588 -10.3741,-8 1.5,-8 L89.0313,-8 C100.905,-8 110.531,1.62588 110.531,13.5 C110.531,25.3741 100.905,35 89.0313,35 L1.5,35 C-10.3741,35 -20,25.3741 -20,13.5 "/>
</g>

<g fill="none" stroke="#000000" stroke-opacity="1" stroke-width="1" stroke-linecap="square" stroke-linejoin="bevel" transform="matrix(0.998685,0,0,0.998685,368.796,30.9592)"
font-family="Ubuntu" font-size="13" font-weight="400" font-style="normal" 
>
</g>

<g fill="none" stroke="#000000" stroke-opacity="1" stroke-width="1" stroke-linecap="square" stroke-linejoin="bevel" transform="matrix(0.998685,0,0,0.998685,368.796,30.9592)"
font-family="Ubuntu" font-size="13" font-weight="400" font-style="normal" 
>
</g>

<g fill="none" stroke="#000000" stroke-opacity="1" stroke-width="1" stroke-linecap="square" stroke-linejoin="bevel" transform="matrix(0.998685,0,0,0.998685,368.796,30.9592)"
font-family="Ubuntu" font-size="13" font-weight="400" font-style="normal" 
>
</g>

<g fill="none" stroke="#20263d" stroke-opacity="1" stroke-width="1" stroke-linecap="square" stroke-linejoin="bevel" transform="matrix(0.998685,0,0,0.998685,368.796,30.9592)"
font-family="Ubuntu" font-size="13" font-weight="400" font-style="normal" 
>
<text fill="#20263d" fill-opacity="1" stroke="none" xml:space="preserve" x="4" y="19" font-family="Ubuntu" font-size="16" font-weight="400" font-style="normal" 
 >Procedures</text>
</g>

<g fill="none" stroke="#000000" stroke-opacity="1" stroke-width="1" stroke-linecap="square" stroke-linejoin="bevel" transform="matrix(0.998685,0,0,0.998685,368.796,30.9592)"
font-family="Ubuntu" font-size="13" font-weight="400" font-style="normal" 
>
</g>

<g fill="none" stroke="#000000" stroke-opacity="1" stroke-width="1" stroke-linecap="square" stroke-linejoin="bevel" transform="matrix(1,0,0,1,0,0)"
font-family="Ubuntu" font-size="13" font-weight="400" font-style="normal" 
>
</g>

<g fill="none" stroke="#000000" stroke-opacity="1" stroke-width="1" stroke-linecap="square" stroke-linejoin="bevel" transform="matrix(0.998685,0,0,0.998685,368.796,30.9592)"
font-family="Ubuntu" font-size="13" font-weight="400" font-style="normal" 
>
</g>

<g fill="none" stroke="#000000" stroke-opacity="1" stroke-width="1" stroke-linecap="square" stroke-linejoin="bevel" transform="matrix(0.998685,0,0,0.998685,368.796,30.9592)"
font-family="Ubuntu" font-size="13" font-weight="400" font-style="normal" 
>
</g>

<g fill="#20263d" fill-opacity="1" stroke="#fcfcfc" stroke-opacity="1" stroke-width="1" stroke-linecap="square" stroke-linejoin="bevel" transform="matrix(0.998685,0,0,0.998685,368.796,30.9592)"
font-family="Ubuntu" font-size="13" font-weight="400" font-style="normal" 
>
<circle cx="-22" cy="13.5" r="2"/>
</g>

<g fill="none" stroke="#000000" stroke-opacity="1" stroke-width="1" stroke-linecap="square" stroke-linejoin="bevel" transform="matrix(0.998685,0,0,0.998685,368.796,30.9592)"
font-family="Ubuntu" font-size="13" font-weight="400" font-style="normal" 
>
</g>

<g fill="none" stroke="#000000" stroke-opacity="1" stroke-width="1" stroke-linecap="square" stroke-linejoin="bevel" transform="matrix(0.998685,0,0,0.998685,368.796,99.8685)"
font-family="Ubuntu" font-size="13" font-weight="400" font-style="normal" 
>
</g>

<g fill="#c8d4e6" fill-opacity="1" stroke="none" transform="matrix(0.998685,0,0,0.998685,368.796,99.8685)"
font-family="Ubuntu" font-size="13" font-weight="400" font-style="normal" 
>
<path vector-effect="none" fill-rule="evenodd" d="M-20,13.5 C-20,1.62588 -10.3741,-8 1.5,-8 L216.047,-8 C227.921,-8 237.547,1.62588 237.547,13.5 C237.547,25.3741 227.921,35 216.047,35 L1.5,35 C-10.3741,35 -20,25.3741 -20,13.5 "/>
</g>

<g fill="none" stroke="#000000" stroke-opacity="1" stroke-width="1" stroke-linecap="square" stroke-linejoin="bevel" transform="matrix(0.998685,0,0,0.998685,368.796,99.8685)"
font-family="Ubuntu" font-size="13" font-weight="400" font-style="normal" 
>
</g>

<g fill="none" stroke="#000000" stroke-opacity="1" stroke-width="1" stroke-linecap="square" stroke-linejoin="bevel" transform="matrix(0.998685,0,0,0.998685,368.796,99.8685)"
font-family="Ubuntu" font-size="13" font-weight="400" font-style="normal" 
>
</g>

<g fill="none" stroke="#000000" stroke-opacity="1" stroke-width="1" stroke-linecap="square" stroke-linejoin="bevel" transform="matrix(0.998685,0,0,0.998685,368.796,99.8685)"
font-family="Ubuntu" font-size="13" font-weight="400" font-style="normal" 
>
</g>

<g fill="none" stroke="#20263d" stroke-opacity="1" stroke-width="1" stroke-linecap="square" stroke-linejoin="bevel" transform="matrix(0.998685,0,0,0.998685,368.796,99.8685)"
font-family="Ubuntu" font-size="13" font-weight="400" font-style="normal" 
>
<text fill="#20263d" fill-opacity="1" stroke="none" xml:space="preserve" x="4" y="19" font-family="Ubuntu" font-size="16" font-weight="400" font-style="normal" 
 >Anticipated frequency of use</text>
</g>

<g fill="none" stroke="#000000" stroke-opacity="1" stroke-width="1" stroke-linecap="square" stroke-linejoin="bevel" transform="matrix(0.998685,0,0,0.998685,368.796,99.8685)"
font-family="Ubuntu" font-size="13" font-weight="400" font-style="normal" 
>
</g>

<g fill="none" stroke="#000000" stroke-opacity="1" stroke-width="1" stroke-linecap="square" stroke-linejoin="bevel" transform="matrix(1,0,0,1,0,0)"
font-family="Ubuntu" font-size="13" font-weight="400" font-style="normal" 
>
</g>

<g fill="none" stroke="#000000" stroke-opacity="1" stroke-width="1" stroke-linecap="square" stroke-linejoin="bevel" transform="matrix(0.998685,0,0,0.998685,368.796,99.8685)"
font-family="Ubuntu" font-size="13" font-weight="400" font-style="normal" 
>
</g>

<g fill="none" stroke="#000000" stroke-opacity="1" stroke-width="1" stroke-linecap="square" stroke-linejoin="bevel" transform="matrix(0.998685,0,0,0.998685,368.796,99.8685)"
font-family="Ubuntu" font-size="13" font-weight="400" font-style="normal" 
>
</g>

<g fill="#20263d" fill-opacity="1" stroke="#fcfcfc" stroke-opacity="1" stroke-width="1" stroke-linecap="square" stroke-linejoin="bevel" transform="matrix(0.998685,0,0,0.998685,368.796,99.8685)"
font-family="Ubuntu" font-size="13" font-weight="400" font-style="normal" 
>
<circle cx="-22" cy="13.5" r="2"/>
</g>

<g fill="none" stroke="#000000" stroke-opacity="1" stroke-width="1" stroke-linecap="square" stroke-linejoin="bevel" transform="matrix(0.998685,0,0,0.998685,368.796,99.8685)"
font-family="Ubuntu" font-size="13" font-weight="400" font-style="normal" 
>
</g>

<g fill="none" stroke="#000000" stroke-opacity="1" stroke-width="1" stroke-linecap="square" stroke-linejoin="bevel" transform="matrix(0.998685,0,0,0.998685,57.9237,60.9198)"
font-family="Ubuntu" font-size="13" font-weight="400" font-style="normal" 
>
</g>

<g fill="#e0e5ec" fill-opacity="1" stroke="none" transform="matrix(0.998685,0,0,0.998685,57.9237,60.9198)"
font-family="Ubuntu" font-size="13" font-weight="400" font-style="normal" 
>
<path vector-effect="none" fill-rule="evenodd" d="M-25,18 C-25,-0.225397 -10.2254,-15 8,-15 L202.281,-15 C220.507,-15 235.281,-0.225397 235.281,18 C235.281,36.2254 220.507,51 202.281,51 L8,51 C-10.2254,51 -25,36.2254 -25,18 "/>
</g>

<g fill="none" stroke="#000000" stroke-opacity="1" stroke-width="1" stroke-linecap="square" stroke-linejoin="bevel" transform="matrix(0.998685,0,0,0.998685,57.9237,60.9198)"
font-family="Ubuntu" font-size="13" font-weight="400" font-style="normal" 
>
</g>

<g fill="none" stroke="#000000" stroke-opacity="1" stroke-width="1" stroke-linecap="square" stroke-linejoin="bevel" transform="matrix(0.998685,0,0,0.998685,57.9237,60.9198)"
font-family="Ubuntu" font-size="13" font-weight="400" font-style="normal" 
>
</g>

<g fill="none" stroke="#000000" stroke-opacity="1" stroke-width="1" stroke-linecap="square" stroke-linejoin="bevel" transform="matrix(0.998685,0,0,0.998685,57.9237,60.9198)"
font-family="Ubuntu" font-size="13" font-weight="400" font-style="normal" 
>
</g>

<g fill="none" stroke="#20263d" stroke-opacity="1" stroke-width="1" stroke-linecap="square" stroke-linejoin="bevel" transform="matrix(0.998685,0,0,0.998685,57.9237,60.9198)"
font-family="Ubuntu" font-size="13" font-weight="400" font-style="normal" 
>
<text fill="#20263d" fill-opacity="1" stroke="none" xml:space="preserve" x="4" y="27" font-family="Ubuntu" font-size="24" font-weight="400" font-style="normal" 
 >Utilization Related</text>
</g>

<g fill="none" stroke="#000000" stroke-opacity="1" stroke-width="1" stroke-linecap="square" stroke-linejoin="bevel" transform="matrix(0.998685,0,0,0.998685,57.9237,60.9198)"
font-family="Ubuntu" font-size="13" font-weight="400" font-style="normal" 
>
</g>

<g fill="none" stroke="#000000" stroke-opacity="1" stroke-width="1" stroke-linecap="square" stroke-linejoin="bevel" transform="matrix(1,0,0,1,0,0)"
font-family="Ubuntu" font-size="13" font-weight="400" font-style="normal" 
>
</g>

<g fill="none" stroke="#000000" stroke-opacity="1" stroke-width="1" stroke-linecap="square" stroke-linejoin="bevel" transform="matrix(0.998685,0,0,0.998685,57.9237,60.9198)"
font-family="Ubuntu" font-size="13" font-weight="400" font-style="normal" 
>
</g>

<g fill="none" stroke="#000000" stroke-opacity="1" stroke-width="1" stroke-linecap="square" stroke-linejoin="bevel" transform="matrix(0.998685,0,0,0.998685,57.9237,60.9198)"
font-family="Ubuntu" font-size="13" font-weight="400" font-style="normal" 
>
</g>

<g fill="none" stroke="#000000" stroke-opacity="1" stroke-width="1" stroke-linecap="square" stroke-linejoin="bevel" transform="matrix(0.998685,0,0,0.998685,57.9237,60.9198)"
font-family="Ubuntu" font-size="13" font-weight="400" font-style="normal" 
>
</g>

<g fill="none" stroke="#000000" stroke-opacity="1" stroke-width="1" stroke-linecap="square" stroke-linejoin="bevel" transform="matrix(1,0,0,1,0,0)"
font-family="Ubuntu" font-size="13" font-weight="400" font-style="normal" 
>
</g>
</g>
</svg>
