<?xml version="1.0" encoding="UTF-8" standalone="no"?>
<svg width="186.267mm" height="55.7389mm"
 viewBox="0 0 528 158"
 xmlns="http://www.w3.org/2000/svg" xmlns:xlink="http://www.w3.org/1999/xlink"  version="1.2" baseProfile="tiny">
<title>inquiryRelated</title>
<desc>Generated by Document Node</desc>
<defs>
</defs>
<g fill="none" stroke="black" stroke-width="1" fill-rule="evenodd" stroke-linecap="square" stroke-linejoin="bevel" >

<g fill="#242d52" fill-opacity="1" stroke="none" transform="matrix(1,0,0,1,0,0)"
font-family="Ubuntu" font-size="13" font-weight="400" font-style="normal" 
>
<rect x="0" y="0" width="528" height="158"/>
</g>

<g fill="none" stroke="#000000" stroke-opacity="1" stroke-width="1" stroke-linecap="square" stroke-linejoin="bevel" transform="matrix(1,0,0,1,0,0)"
font-family="Ubuntu" font-size="13" font-weight="400" font-style="normal" 
>
</g>

<g fill="none" stroke="#000000" stroke-opacity="1" stroke-width="1" stroke-linecap="square" stroke-linejoin="bevel" transform="matrix(1,0,0,1,0,0)"
font-family="Ubuntu" font-size="13" font-weight="400" font-style="normal" 
>
</g>

<g fill="none" stroke="#000000" stroke-opacity="1" stroke-width="1" stroke-linecap="square" stroke-linejoin="bevel" transform="matrix(0.998936,0,0,0.998936,0,0)"
font-family="Ubuntu" font-size="13" font-weight="400" font-style="normal" 
>
</g>

<g fill="#15f1eb" fill-opacity="1" stroke="none" transform="matrix(0.998936,0,0,0.998936,0,0)"
font-family="Ubuntu" font-size="13" font-weight="400" font-style="normal" 
>
<path vector-effect="none" fill-rule="evenodd" d="M234.375,79 L322.875,44 L322.875,45 L239.375,79 L234.375,79"/>
</g>

<g fill="none" stroke="#000000" stroke-opacity="1" stroke-width="1" stroke-linecap="square" stroke-linejoin="bevel" transform="matrix(0.998936,0,0,0.998936,0,0)"
font-family="Ubuntu" font-size="13" font-weight="400" font-style="normal" 
>
</g>

<g fill="none" stroke="#000000" stroke-opacity="1" stroke-width="1" stroke-linecap="square" stroke-linejoin="bevel" transform="matrix(0.998936,0,0,0.998936,0,0)"
font-family="Ubuntu" font-size="13" font-weight="400" font-style="normal" 
>
</g>

<g fill="#15f1eb" fill-opacity="1" stroke="none" transform="matrix(0.998936,0,0,0.998936,0,0)"
font-family="Ubuntu" font-size="13" font-weight="400" font-style="normal" 
>
<path vector-effect="none" fill-rule="evenodd" d="M234.375,79 L322.875,114 L322.875,113 L239.375,79 L234.375,79"/>
</g>

<g fill="none" stroke="#000000" stroke-opacity="1" stroke-width="1" stroke-linecap="square" stroke-linejoin="bevel" transform="matrix(0.998936,0,0,0.998936,0,0)"
font-family="Ubuntu" font-size="13" font-weight="400" font-style="normal" 
>
</g>

<g fill="none" stroke="#000000" stroke-opacity="1" stroke-width="1" stroke-linecap="square" stroke-linejoin="bevel" transform="matrix(0.998936,0,0,0.998936,342.51,30.967)"
font-family="Ubuntu" font-size="13" font-weight="400" font-style="normal" 
>
</g>

<g fill="none" stroke="#15f1eb" stroke-opacity="1" stroke-width="2.5" stroke-linecap="square" stroke-linejoin="bevel" transform="matrix(0.998936,0,0,0.998936,342.51,30.967)"
font-family="Ubuntu" font-size="13" font-weight="400" font-style="normal" 
>
<path vector-effect="none" fill-rule="evenodd" d="M-20,13.5 L-7.1,-8 L126.912,-8 L139.813,13.5 L126.912,35 L-7.1,35 L-20,13.5"/>
</g>

<g fill="none" stroke="#15f1eb" stroke-opacity="1" stroke-width="2.5" stroke-linecap="square" stroke-linejoin="bevel" transform="matrix(0.998936,0,0,0.998936,342.51,30.967)"
font-family="Ubuntu" font-size="13" font-weight="400" font-style="normal" 
>
</g>

<g fill="none" stroke="#15f1eb" stroke-opacity="1" stroke-width="2.5" stroke-linecap="square" stroke-linejoin="bevel" transform="matrix(0.998936,0,0,0.998936,342.51,30.967)"
font-family="Ubuntu" font-size="13" font-weight="400" font-style="normal" 
>
</g>

<g fill="none" stroke="#ffffff" stroke-opacity="1" stroke-width="1" stroke-linecap="square" stroke-linejoin="bevel" transform="matrix(0.998936,0,0,0.998936,342.51,30.967)"
font-family="Ubuntu" font-size="13" font-weight="400" font-style="normal" 
>
<text fill="#ffffff" fill-opacity="1" stroke="none" xml:space="preserve" x="4" y="19" font-family="Ubuntu" font-size="16" font-weight="400" font-style="normal" 
 >Logic of Inquiry</text>
</g>

<g fill="none" stroke="#15f1eb" stroke-opacity="1" stroke-width="2.5" stroke-linecap="square" stroke-linejoin="bevel" transform="matrix(0.998936,0,0,0.998936,342.51,30.967)"
font-family="Ubuntu" font-size="13" font-weight="400" font-style="normal" 
>
</g>

<g fill="none" stroke="#15f1eb" stroke-opacity="1" stroke-width="2.5" stroke-linecap="square" stroke-linejoin="bevel" transform="matrix(1,0,0,1,0,0)"
font-family="Ubuntu" font-size="13" font-weight="400" font-style="normal" 
>
</g>

<g fill="none" stroke="#15f1eb" stroke-opacity="1" stroke-width="2.5" stroke-linecap="square" stroke-linejoin="bevel" transform="matrix(0.998936,0,0,0.998936,342.51,30.967)"
font-family="Ubuntu" font-size="13" font-weight="400" font-style="normal" 
>
</g>

<g fill="none" stroke="#15f1eb" stroke-opacity="1" stroke-width="2.5" stroke-linecap="square" stroke-linejoin="bevel" transform="matrix(0.998936,0,0,0.998936,342.51,30.967)"
font-family="Ubuntu" font-size="13" font-weight="400" font-style="normal" 
>
</g>

<g fill="none" stroke="#000000" stroke-opacity="1" stroke-width="1" stroke-linecap="square" stroke-linejoin="bevel" transform="matrix(0.998936,0,0,0.998936,342.51,30.967)"
font-family="Ubuntu" font-size="13" font-weight="400" font-style="normal" 
>
</g>

<g fill="none" stroke="#000000" stroke-opacity="1" stroke-width="1" stroke-linecap="square" stroke-linejoin="bevel" transform="matrix(0.998936,0,0,0.998936,342.51,99.8936)"
font-family="Ubuntu" font-size="13" font-weight="400" font-style="normal" 
>
</g>

<g fill="none" stroke="#15f1eb" stroke-opacity="1" stroke-width="2.5" stroke-linecap="square" stroke-linejoin="bevel" transform="matrix(0.998936,0,0,0.998936,342.51,99.8936)"
font-family="Ubuntu" font-size="13" font-weight="400" font-style="normal" 
>
<path vector-effect="none" fill-rule="evenodd" d="M-20,13.5 L-7.1,-8 L149.787,-8 L162.688,13.5 L149.787,35 L-7.1,35 L-20,13.5"/>
</g>

<g fill="none" stroke="#15f1eb" stroke-opacity="1" stroke-width="2.5" stroke-linecap="square" stroke-linejoin="bevel" transform="matrix(0.998936,0,0,0.998936,342.51,99.8936)"
font-family="Ubuntu" font-size="13" font-weight="400" font-style="normal" 
>
</g>

<g fill="none" stroke="#15f1eb" stroke-opacity="1" stroke-width="2.5" stroke-linecap="square" stroke-linejoin="bevel" transform="matrix(0.998936,0,0,0.998936,342.51,99.8936)"
font-family="Ubuntu" font-size="13" font-weight="400" font-style="normal" 
>
</g>

<g fill="none" stroke="#ffffff" stroke-opacity="1" stroke-width="1" stroke-linecap="square" stroke-linejoin="bevel" transform="matrix(0.998936,0,0,0.998936,342.51,99.8936)"
font-family="Ubuntu" font-size="13" font-weight="400" font-style="normal" 
>
<text fill="#ffffff" fill-opacity="1" stroke="none" xml:space="preserve" x="4" y="19" font-family="Ubuntu" font-size="16" font-weight="400" font-style="normal" 
 >Empirics of Inquiry</text>
</g>

<g fill="none" stroke="#15f1eb" stroke-opacity="1" stroke-width="2.5" stroke-linecap="square" stroke-linejoin="bevel" transform="matrix(0.998936,0,0,0.998936,342.51,99.8936)"
font-family="Ubuntu" font-size="13" font-weight="400" font-style="normal" 
>
</g>

<g fill="none" stroke="#15f1eb" stroke-opacity="1" stroke-width="2.5" stroke-linecap="square" stroke-linejoin="bevel" transform="matrix(1,0,0,1,0,0)"
font-family="Ubuntu" font-size="13" font-weight="400" font-style="normal" 
>
</g>

<g fill="none" stroke="#15f1eb" stroke-opacity="1" stroke-width="2.5" stroke-linecap="square" stroke-linejoin="bevel" transform="matrix(0.998936,0,0,0.998936,342.51,99.8936)"
font-family="Ubuntu" font-size="13" font-weight="400" font-style="normal" 
>
</g>

<g fill="none" stroke="#15f1eb" stroke-opacity="1" stroke-width="2.5" stroke-linecap="square" stroke-linejoin="bevel" transform="matrix(0.998936,0,0,0.998936,342.51,99.8936)"
font-family="Ubuntu" font-size="13" font-weight="400" font-style="normal" 
>
</g>

<g fill="none" stroke="#000000" stroke-opacity="1" stroke-width="1" stroke-linecap="square" stroke-linejoin="bevel" transform="matrix(0.998936,0,0,0.998936,342.51,99.8936)"
font-family="Ubuntu" font-size="13" font-weight="400" font-style="normal" 
>
</g>

<g fill="none" stroke="#000000" stroke-opacity="1" stroke-width="1" stroke-linecap="square" stroke-linejoin="bevel" transform="matrix(0.998936,0,0,0.998936,62.933,60.9351)"
font-family="Ubuntu" font-size="13" font-weight="400" font-style="normal" 
>
</g>

<g fill="#242d52" fill-opacity="1" stroke="none" transform="matrix(0.998936,0,0,0.998936,62.933,60.9351)"
font-family="Ubuntu" font-size="13" font-weight="400" font-style="normal" 
>
<path vector-effect="none" fill-rule="evenodd" d="M-30,18 L-13.2,-10 L187.075,-10 L203.875,18 L187.075,46 L-13.2,46 L-30,18"/>
</g>

<g fill="none" stroke="#4fffc0" stroke-opacity="1" stroke-width="4" stroke-linecap="square" stroke-linejoin="bevel" transform="matrix(0.998936,0,0,0.998936,62.933,60.9351)"
font-family="Ubuntu" font-size="13" font-weight="400" font-style="normal" 
>
<path vector-effect="none" fill-rule="evenodd" d="M-30,18 L-13.2,-10 L187.075,-10 L203.875,18 L187.075,46 L-13.2,46 L-30,18"/>
</g>

<g fill="none" stroke="#4fffc0" stroke-opacity="1" stroke-width="4" stroke-linecap="square" stroke-linejoin="bevel" transform="matrix(0.998936,0,0,0.998936,62.933,60.9351)"
font-family="Ubuntu" font-size="13" font-weight="400" font-style="normal" 
>
</g>

<g fill="none" stroke="#4fffc0" stroke-opacity="1" stroke-width="4" stroke-linecap="square" stroke-linejoin="bevel" transform="matrix(0.998936,0,0,0.998936,62.933,60.9351)"
font-family="Ubuntu" font-size="13" font-weight="400" font-style="normal" 
>
</g>

<g fill="none" stroke="#ffffff" stroke-opacity="1" stroke-width="1" stroke-linecap="square" stroke-linejoin="bevel" transform="matrix(0.998936,0,0,0.998936,62.933,60.9351)"
font-family="Ubuntu" font-size="13" font-weight="400" font-style="normal" 
>
<text fill="#ffffff" fill-opacity="1" stroke="none" xml:space="preserve" x="4" y="27" font-family="Ubuntu" font-size="24" font-weight="400" font-style="normal" 
 >Inquiry Related</text>
</g>

<g fill="none" stroke="#4fffc0" stroke-opacity="1" stroke-width="4" stroke-linecap="square" stroke-linejoin="bevel" transform="matrix(0.998936,0,0,0.998936,62.933,60.9351)"
font-family="Ubuntu" font-size="13" font-weight="400" font-style="normal" 
>
</g>

<g fill="none" stroke="#4fffc0" stroke-opacity="1" stroke-width="4" stroke-linecap="square" stroke-linejoin="bevel" transform="matrix(1,0,0,1,0,0)"
font-family="Ubuntu" font-size="13" font-weight="400" font-style="normal" 
>
</g>

<g fill="none" stroke="#4fffc0" stroke-opacity="1" stroke-width="4" stroke-linecap="square" stroke-linejoin="bevel" transform="matrix(0.998936,0,0,0.998936,62.933,60.9351)"
font-family="Ubuntu" font-size="13" font-weight="400" font-style="normal" 
>
</g>

<g fill="none" stroke="#4fffc0" stroke-opacity="1" stroke-width="4" stroke-linecap="square" stroke-linejoin="bevel" transform="matrix(0.998936,0,0,0.998936,62.933,60.9351)"
font-family="Ubuntu" font-size="13" font-weight="400" font-style="normal" 
>
</g>

<g fill="none" stroke="#000000" stroke-opacity="1" stroke-width="1" stroke-linecap="square" stroke-linejoin="bevel" transform="matrix(0.998936,0,0,0.998936,62.933,60.9351)"
font-family="Ubuntu" font-size="13" font-weight="400" font-style="normal" 
>
</g>

<g fill="none" stroke="#000000" stroke-opacity="1" stroke-width="1" stroke-linecap="square" stroke-linejoin="bevel" transform="matrix(1,0,0,1,0,0)"
font-family="Ubuntu" font-size="13" font-weight="400" font-style="normal" 
>
</g>
</g>
</svg>
